<svg xmlns="http://www.w3.org/2000/svg" width="227" height="61" viewBox="0 0 227 61"><title>Artboard</title><path stroke="#FFF" stroke-width=".6" d="M68.33 37.096v22.488h-2.044v.097H73v-.095h-2.012V48.86h4.15c4.573 0 8.107-2.626 8.107-6.06 0-3.404-2.917-5.8-7.652-5.8h-9.307v.096h2.044zm2.658 0h3.89c3.827 0 5.547 2.657 5.547 5.8 0 3.24-1.654 5.866-5.675 5.866h-3.762V37.096zm16.57 22.488c-2.302 0-2.756-1.62-2.043-3.532l2.205-6.092h8.01l3.762 9.624h-2.14v.097h6.81v-.095h-1.818L93.524 37h-1.2l-6.94 19.02c-.68 1.878-1.457 3.564-2.98 3.564h-.13v.097h5.51v-.095h-.227l.001-.002zm4.054-20.252l4.085 10.53h-7.944l3.859-10.53zm30.804 16.428c0-4.147-1.815-6.837-5.934-7.16 3.956-.39 6.907-2.755 6.907-5.898 0-3.403-2.92-5.703-7.654-5.703h-9.307v.095h2.042v22.488h-2.043v.097h6.712v-.096h-2.01v-10.92h3.793c4.15 0 4.96 2.786 4.96 7.096 0 2.495.423 4.244 2.563 4.244 1.815 0 2.463-1.555 2.463-2.948v-.68h-.096v.68c0 .907-.454 1.62-1.167 1.62-.974 0-1.234-.972-1.234-2.916h.003l.002.001zm-11.284-18.664h3.89c3.828 0 5.546 2.56 5.546 5.703 0 3.24-1.654 5.766-5.674 5.766h-3.762v-11.47.001zm23.54 0v22.488h-2.04v.097h6.71v-.095h-2.01v-22.49h1.232c4.022 0 5.675 1.49 6 5.477h.097V35.8h-.096c0 .713-.42 1.2-1.135 1.2h-14.85c-.716 0-1.137-.487-1.137-1.2h-.097v6.772h.097c.324-3.985 1.978-5.476 6-5.476h1.23-.001zM163.47 59.68h2.27V41.147c0-2.883.875-4.05 2.043-4.05V37h-4.54v.096h.163c1.135 0 2.205 1.167 2.205 4.05V58.48L153.06 37h-4.993v.096h2.043v18.437c0 2.884-.876 4.05-2.043 4.05v.098h4.54v-.095h-.162c-1.135 0-2.205-1.167-2.205-4.05v-18.21l13.23 22.357.002-.002-.002-.001zm14.883-11.307c2.952 0 4.055 1.263 4.346 3.5h.096v-7.098h-.097c-.29 2.236-1.395 3.5-4.346 3.5h-3.112v-11.18h4.897c3.826 0 5.025 1.59 5.706 5.542h.065V37h-15.37v.096h2.043v22.488h-2.044v.097h15.694v-5.637h-.064c-.68 3.954-1.88 5.542-5.707 5.542h-5.222v-11.21h3.114v-.002l.001-.001zm28.082 7.387c0-4.147-1.815-6.837-5.933-7.16 3.955-.39 6.905-2.755 6.905-5.898 0-3.403-2.918-5.703-7.653-5.703h-9.306v.095h2.044v22.488h-2.044v.097h6.713v-.096h-2.01v-10.92h3.793c4.15 0 4.96 2.786 4.96 7.096 0 2.495.423 4.244 2.563 4.244 1.815 0 2.465-1.555 2.465-2.948v-.68h-.097v.68c0 .907-.453 1.62-1.167 1.62-.973 0-1.233-.972-1.233-2.915l.002-.001-.002.001zM195.15 37.096h3.89c3.83 0 5.547 2.56 5.547 5.703 0 3.24-1.653 5.766-5.674 5.766h-3.762v-11.47l-.001.001zm24.613 22.78c3.24 0 4.93-2.074 4.93-4.764 0-7.13-12.16-4.407-12.16-12.152 0-3.823 2.787-6.287 7.133-6.287 2.788 0 3.76 1.2 5.35 1.2.714 0 1.134-.487 1.134-1.2h.098v6.773h-.098c-.81-3.855-2.463-6.642-6.485-6.642-3.244 0-4.994 2.105-4.994 4.6 0 7.162 12.193 4.407 12.193 12.12 0 3.79-3.176 6.48-7.1 6.48-3.568 0-4.28-1.75-6.324-1.75-.745 0-1.135.485-1.135 1.165h-.13v-6.77h.13c.713 4.18 3.468 7.226 7.458 7.227z"/><path stroke="#FFF" stroke-width=".3" d="M33.67 34.06v-.143h-3.026V1.142h3.027V1H20.43v.142h3.026v16.435h-13.24V1.142h3.025V1H0v.142h3.027v32.775H0v.143h13.24v-.143h-3.025V17.72h13.24v16.197H20.43v.143h13.24zm20.052 0v-.143h-2.98V1.142h2.98V1H40.48v.142h3.075v32.775H40.48v.143h13.242z"/><path stroke="#FFF" stroke-width=".5" d="M59 1v58.445"/><path d="M30.006 46.675V43.98h-2.85v2.695h-.642v-5.903h.64v2.644h2.852v-2.644h.64v5.903h-.64zm4.567-4.933c-.258-.26-.63-.416-1.02-.416s-.764.155-1.022.416c-.37.375-.413.767-.413 1.98 0 1.217.042 1.607.415 1.982.26.26.632.417 1.023.417.39 0 .762-.154 1.02-.415.373-.375.415-.765.415-1.98s-.042-1.607-.415-1.982h-.002l-.001-.002zm.49 4.33c-.4.39-.922.603-1.51.603a2.11 2.11 0 0 1-1.51-.603c-.557-.547-.557-1.117-.557-2.35 0-1.23 0-1.8.556-2.347.4-.39.92-.603 1.51-.603s1.11.212 1.51.603c.556.547.556 1.118.556 2.348 0 1.232 0 1.802-.555 2.349zm3.783-4.737v5.34h-.644v-5.34h-1.745v-.563h4.133v.563h-1.744zm4.24 5.34v-5.903h3.542v.563h-2.933v2.08h2.5v.565h-2.5v2.13h2.933v.565h-3.542zm6.628 0v-5.903h.612v5.34h2.93v.563h-3.542zM0 58.275h.6v-5.903H0v5.903zm5.734 0L2.34 53.54v4.735h-.683v-5.903h.646l3.394 4.718v-4.718h.683v5.903h-.646zm3.532 0h-.552L6.63 52.372h.712l1.65 4.776 1.646-4.776h.713l-2.085 5.903zm3.99 0v-5.903H16.8v.563h-2.934v2.08h2.5v.565h-2.5v2.13H16.8v.565h-3.544zm7.03 0c-.9 0-1.492-.22-2.057-.767l.436-.424c.498.482.962.637 1.636.637.877 0 1.417-.4 1.417-1.075 0-.3-.093-.562-.288-.725-.194-.164-.345-.213-.783-.28l-.7-.104c-.474-.074-.845-.22-1.106-.44-.304-.262-.456-.62-.456-1.086 0-.986.733-1.638 1.92-1.638.77 0 1.275.187 1.79.636l-.414.4c-.37-.327-.767-.498-1.4-.498-.8 0-1.265.432-1.265 1.076 0 .285.085.514.27.67.186.154.5.268.81.317l.66.098c.562.083.84.197 1.094.41.33.27.506.67.506 1.15 0 1.02-.825 1.646-2.074 1.646l.004-.003zm4.96-5.34v5.34h-.644v-5.34h-1.745v-.563h4.133v.563h-1.744zm7.577 5.34V53.79l-1.698 3.556h-.567l-1.725-3.557v4.484h-.66V52.37h.66l2.02 4.188 1.97-4.188h.662v5.903l-.662.002zm3.634 0v-5.903H40v.563h-2.934v2.08h2.5v.565h-2.5v2.13H40v.565h-3.543zm9.048 0L42.11 53.54v4.735h-.68v-5.903h.645l3.394 4.718v-4.718h.68v5.903h-.644zm4.94-5.34v5.34h-.643v-5.34h-1.745v-.563h4.133v.563h-1.745z"/></svg>