<?xml version="1.0" encoding="UTF-8"?><!DOCTYPE svg PUBLIC "-//W3C//DTD SVG 1.1//EN" "http://www.w3.org/Graphics/SVG/1.1/DTD/svg11.dtd"><svg xmlns="http://www.w3.org/2000/svg"><symbol id="icon-arrow-lang" viewBox="353.16 151.34 253.68 145.32"><path d="M480 296.66l14.84-13.02 112-98.56-29.68-33.74L480 236.88l-97.16-85.54-29.68 33.74 112 98.56L480 296.66z"/></symbol><symbol id="icon-arrow" viewBox="0 0 14 11"><path d="M9.433.82a.502.502 0 0 0-.705 0c-.19.188-.19.5 0 .687l3.577 3.517H.5c-.274 0-.5.215-.5.485S.226 6 .5 6h11.805L8.728 9.51a.493.493 0 0 0 0 .693.5.5 0 0 0 .705 0l4.424-4.35a.483.483 0 0 0 0-.685L9.433.82z"/></symbol><symbol id="icon-download" viewBox="0 0 17 19"><g><path d="M14.946 4.68h-3.79v.703h3.79c.637 0 1.169.528 1.169 1.126v10.38c0 .633-.532 1.126-1.17 1.126H2.056c-.638 0-1.17-.528-1.17-1.126V6.509c0-.633.532-1.126 1.17-1.126h3.789V4.68h-3.79c-1.027 0-1.877.809-1.877 1.83v10.379c0 1.02.85 1.83 1.877 1.83h12.892c1.027 0 1.877-.81 1.877-1.83V6.509c0-.985-.85-1.83-1.877-1.83z"/><path d="M5.596 9.676l2.656 2.463c.07.07.142.105.248.105a.323.323 0 0 0 .248-.105l2.656-2.463-.496-.528-2.054 1.935V.281h-.708v10.802l-2.054-1.9-.496.493z"/></g></symbol><symbol id="icon-star" viewBox="0 0 13 13"><path d="M6.51 10.206l-3.98 2.09.77-4.422L.077 4.74l4.45-.652L6.512.06l1.984 4.03 4.452.65L9.72 7.875l.773 4.42"/></symbol></svg>